<svg data-v-db31aaf9="" xmlns="http://www.w3.org/2000/svg" width="100%" height="100%" viewBox="0 0 118 117" fill="none"><path data-v-db31aaf9="" d="M0.5 58.5C0.5 52.4636 0.5 49.4454 0.750394 46.9031C3.18199 22.2147 22.7147 2.68199 47.4031 0.250394C49.9454 0 52.9636 0 59 0C65.0364 0 68.0546 0 70.5969 0.250394C95.2853 2.68199 114.818 22.2147 117.25 46.9031C117.5 49.4454 117.5 52.4636 117.5 58.5C117.5 64.5364 117.5 67.5546 117.25 70.0969C114.818 94.7853 95.2853 114.318 70.5969 116.75C68.0546 117 65.0364 117 59 117C52.9636 117 49.9454 117 47.4031 116.75C22.7147 114.318 3.18199 94.7853 0.750394 70.0969C0.5 67.5546 0.5 64.5364 0.5 58.5Z" fill="#646464"></path><circle data-v-db31aaf9="" cx="59" cy="45.5" r="26" fill="white"></circle><path data-v-db31aaf9="" fill-rule="evenodd" clip-rule="evenodd" d="M104.443 115.044C104.45 115.16 104.377 115.265 104.266 115.297C98.3469 117 89.9926 117 77.4999 117H40.4999C28.0068 117 19.6524 117 13.7328 115.296C13.6218 115.264 13.5492 115.159 13.5558 115.044C14.7447 94.4137 34.6359 78.0001 58.9996 78.0001C83.3634 78.0001 103.255 94.4138 104.443 115.044Z" fill="white"></path></svg>